PathFileType	4	(X/Y/Z)	C:\Users\86182\Documents\cortex\Trimmed_M1_H1.trc
DataRate	CameraRate	NumFrames	NumMarkers	Units	OrigDataRate	OrigDataStartFrame	OrigNumFrames
100.00	100.00	       144	2	mm	100.00	1	       901
Frame#	Time	gripper			box			
		X1	Y1	Z1	X2	Y2	Z2	

1	0.000	200.78287	195.12352	193.40166	203.65671	193.97018	58.17965	
2	0.010	200.78255	195.12349	193.40182	203.66032	193.97118	58.18370	
3	0.020	200.78253	195.12349	193.40182	203.66345	193.97206	58.18717	
4	0.030	200.78287	195.12352	193.40166	203.66586	193.97275	58.18983	
5	0.040	200.78336	195.12358	193.40140	203.66762	193.97316	58.19191	
6	0.050	200.78372	195.12361	193.40120	203.66910	193.97331	58.19393	
7	0.060	200.78383	195.12363	193.40114	203.67068	193.97328	58.19639	
8	0.070	200.78369	195.12361	193.40121	203.67245	193.97313	58.19930	
9	0.080	200.78343	195.12358	193.40135	203.67421	193.97290	58.20228	
10	0.090	200.78313	195.12355	193.40152	203.67570	193.97256	58.20504	
11	0.100	200.78278	195.12350	193.40170	203.67680	193.97206	58.20745	
12	0.110	200.78232	195.12346	193.40193	203.67741	193.97139	58.20935	
13	0.120	200.78188	195.12341	193.40216	203.67747	193.97060	58.21058	
14	0.130	200.78185	195.12341	193.40219	203.67712	193.96983	58.21115	
15	0.140	200.78255	195.12349	193.40181	203.67673	193.96919	58.21147	
16	0.150	200.78401	195.12366	193.40105	203.67667	193.96870	58.21206	
17	0.160	200.78601	195.12387	193.39999	203.67702	193.96841	58.21301	
18	0.170	200.78816	195.12411	193.39888	203.67757	193.96837	58.21391	
19	0.180	200.79004	195.12433	193.39790	203.67801	193.96857	58.21431	
20	0.190	200.79123	195.12445	193.39728	203.67815	193.96896	58.21395	
21	0.200	200.79150	195.12448	193.39713	203.67789	193.96948	58.21279	
22	0.210	200.79097	195.12442	193.39742	203.67722	193.97014	58.21082	
23	0.220	200.78998	195.12431	193.39793	203.67621	193.97096	58.20811	
24	0.230	200.78877	195.12418	193.39856	203.67503	193.97185	58.20504	
25	0.240	200.78748	195.12404	193.39925	203.67390	193.97263	58.20222	
26	0.250	200.78616	195.12389	193.39993	203.67307	193.97321	58.20013	
27	0.260	200.78496	195.12376	193.40056	203.67270	193.97354	58.19909	
28	0.270	200.78400	195.12366	193.40106	203.67288	193.97359	58.19927	
29	0.280	200.78342	195.12358	193.40137	203.67346	193.97333	58.20054	
30	0.290	200.78314	195.12355	193.40150	203.67419	193.97279	58.20243	
31	0.300	200.78299	195.12354	193.40158	203.67487	193.97214	58.20439	
32	0.310	200.78288	195.12352	193.40164	203.67545	193.97159	58.20604	
33	0.320	200.78278	195.12352	193.40170	203.67589	193.97128	58.20718	
34	0.330	200.78265	195.12350	193.40176	203.67613	193.97118	58.20767	
35	0.340	200.78249	195.12347	193.40186	203.67599	193.97118	58.20749	
36	0.350	200.78227	195.12346	193.40196	203.67554	193.97113	58.20685	
37	0.360	200.78203	195.12343	193.40208	203.67488	193.97101	58.20603	
38	0.370	200.78174	195.12340	193.40224	203.67412	193.97095	58.20496	
39	0.380	200.78139	195.12335	193.40242	203.67322	193.97110	58.20337	
40	0.390	200.78128	195.12334	193.40248	203.67213	193.97150	58.20116	
41	0.400	200.78181	195.12340	193.40221	203.67093	193.97205	58.19854	
42	0.410	200.78319	195.12355	193.40149	203.66974	193.97258	58.19597	
43	0.420	200.78531	195.12379	193.40038	203.66869	193.97284	58.19399	
44	0.430	200.78787	195.12407	193.39903	203.66788	193.97273	58.19293	
45	0.440	200.79045	195.12436	193.39769	203.66748	193.97229	58.19295	
46	0.450	200.79253	195.12459	193.39659	203.66760	193.97174	58.19393	
47	0.460	200.79376	195.12473	193.39595	203.66820	193.97127	58.19550	
48	0.470	200.79416	195.12477	193.39575	203.66907	193.97093	58.19730	
49	0.480	200.79391	195.12476	193.39586	203.67001	193.97069	58.19911	
50	0.490	200.79337	195.12469	193.39615	203.67088	193.97052	58.20065	
51	0.500	200.79272	195.12462	193.39650	203.67157	193.97054	58.20169	
52	0.510	200.79210	195.12456	193.39682	203.67221	193.97078	58.20229	
53	0.520	200.79155	195.12450	193.39711	203.67297	193.97116	58.20292	
54	0.530	200.79105	195.12444	193.39735	203.67393	193.97139	58.20405	
55	0.540	200.79070	195.12440	193.39754	203.67494	193.97130	58.20572	
56	0.550	200.79051	195.12437	193.39764	203.67570	193.97084	58.20753	
57	0.560	200.79036	195.12436	193.39771	203.67599	193.97011	58.20903	
58	0.570	200.79013	195.12431	193.39783	203.67574	193.96916	58.21000	
59	0.580	200.78989	195.12427	193.39796	203.67497	193.96819	58.21024	
60	0.590	200.78984	195.12424	193.39799	203.67381	193.96741	58.20958	
61	0.600	200.79012	195.12424	193.39786	203.67247	193.96706	58.20807	
62	0.610	200.79056	195.12425	193.39764	203.67133	193.96716	58.20615	
63	0.620	200.79085	195.12427	193.39752	203.67059	193.96761	58.20438	
64	0.630	200.79079	195.12425	193.39758	203.67035	193.96819	58.20319	
65	0.640	200.79057	195.12428	193.39774	203.67047	193.96867	58.20267	
66	0.650	200.79071	195.12440	193.39771	203.67075	193.96901	58.20260	
67	0.660	200.79167	195.12471	193.39723	203.67094	193.96928	58.20253	
68	0.670	200.79340	195.12523	193.39632	203.67096	193.96965	58.20206	
69	0.680	200.79529	195.12592	193.39523	203.67061	193.97012	58.20090	
70	0.690	200.79662	195.12665	193.39433	203.66978	193.97061	58.19899	
71	0.700	200.79686	195.12729	193.39383	203.66843	193.97095	58.19653	
72	0.710	200.79568	195.12766	193.39391	203.66670	193.97107	58.19385	
73	0.720	200.79272	195.12741	193.39473	203.66489	193.97102	58.19123	
74	0.730	200.78773	195.12614	193.39650	203.66316	193.97084	58.18889	
75	0.740	200.78033	195.12326	193.39957	203.66176	193.97052	58.18714	
76	0.750	200.76984	195.11807	193.40459	203.66122	193.96992	58.18685	
77	0.760	200.75574	195.10997	193.41226	203.66235	193.96898	58.18925	
78	0.770	200.73860	195.09875	193.42297	203.66574	193.96768	58.19506	
79	0.780	200.72032	195.08496	193.43648	203.67111	193.96634	58.20330	
80	0.790	200.70358	195.07002	193.45233	203.67722	193.96541	58.21113	
81	0.800	200.69087	195.05573	193.47064	203.68233	193.96509	58.21494	
82	0.810	200.68364	195.04305	193.49294	203.68491	193.96507	58.21189	
83	0.820	200.68210	195.03177	193.52232	203.68393	193.96445	58.20083	
84	0.830	200.68591	195.02083	193.56274	203.67889	193.96176	58.18266	
85	0.840	200.69508	195.00888	193.61823	203.66934	193.95532	58.15981	
86	0.850	200.71008	194.99492	193.69278	203.65419	193.94363	58.13538	
87	0.860	200.73045	194.97856	193.79082	203.63150	193.92603	58.11271	
88	0.870	200.75320	194.95988	193.91692	203.59888	193.90337	58.09597	
89	0.880	200.77347	194.93939	194.07486	203.55447	193.87837	58.09122	
90	0.890	200.78700	194.91876	194.26649	203.49840	193.85483	58.10693	
91	0.900	200.79187	194.90109	194.49176	203.43417	193.83603	58.15344	
92	0.910	200.78790	194.89014	194.74976	203.36845	193.82361	58.24163	
93	0.920	200.77667	194.88864	195.03949	203.30844	193.81775	58.38203	
94	0.930	200.76213	194.89655	195.35960	203.25876	193.81850	58.58397	
95	0.940	200.74904	194.91129	195.70773	203.22026	193.82689	58.85324	
96	0.950	200.73972	194.92969	196.08081	203.19084	193.84496	59.18838	
97	0.960	200.73331	194.94971	196.47598	203.16582	193.87468	59.57946	
98	0.970	200.72722	194.97067	196.89079	203.13853	193.91701	60.01244	
99	0.980	200.71823	194.99222	197.32161	203.10294	193.97169	60.47467	
100	0.990	200.70390	195.01355	197.76276	203.05769	194.03653	60.95586	
101	1.000	200.68497	195.03371	198.20842	203.00894	194.10522	61.44519	
102	1.010	200.66537	195.05170	198.65530	202.97118	194.16487	61.92751	
103	1.020	200.64957	195.06662	199.10202	202.96207	194.19881	62.38501	
104	1.030	200.64063	195.07825	199.54718	202.98814	194.19894	62.80872	
105	1.040	200.64023	195.08743	199.98886	203.03696	194.17381	63.20644	
106	1.050	200.64873	195.09531	200.42537	203.08942	194.13971	63.59390	
107	1.060	200.66487	195.10248	200.85631	203.13544	194.10872	63.98253	
108	1.070	200.68626	195.10916	201.28322	203.17435	194.08627	64.37601	
109	1.080	200.71057	195.11566	201.70804	203.20631	194.07285	64.77265	
110	1.090	200.73526	195.12215	202.13057	203.22823	194.06609	65.16942	
111	1.100	200.75751	195.12871	202.54871	203.23721	194.06357	65.56515	
112	1.110	200.77643	195.13573	202.96210	203.23555	194.06470	65.96073	
113	1.120	200.79404	195.14380	203.37390	203.23004	194.06995	66.35780	
114	1.130	200.81265	195.15308	203.78784	203.22653	194.07889	66.75812	
115	1.140	200.83215	195.16241	204.20543	203.22658	194.08916	67.16318	
116	1.150	200.85072	195.17012	204.62631	203.22977	194.09799	67.57316	
117	1.160	200.86765	195.17566	205.04984	203.23689	194.10480	67.98685	
118	1.170	200.88429	195.18036	205.47565	203.24985	194.11122	68.40320	
119	1.180	200.90213	195.18594	205.90430	203.26917	194.11882	68.82296	
120	1.190	200.92101	195.19284	206.33661	203.29228	194.12822	69.24797	
121	1.200	200.93826	195.20049	206.77242	203.31371	194.13956	69.67804	
122	1.210	200.94998	195.20853	207.21074	203.32741	194.15268	70.10985	
123	1.220	200.95349	195.21698	207.65163	203.32910	194.16718	70.53960	
124	1.230	200.94899	195.22545	208.09541	203.31628	194.18340	70.96536	
125	1.240	200.93866	195.23305	208.54045	203.28729	194.20302	71.38716	
126	1.250	200.92465	195.23940	208.98305	203.24176	194.22717	71.80624	
127	1.260	200.90718	195.24466	209.41962	203.18301	194.25392	72.22308	
128	1.270	200.88451	195.24924	209.84833	203.11832	194.27898	72.63591	
129	1.280	200.85570	195.25354	210.26978	203.05496	194.29901	73.04259	
130	1.290	200.82254	195.25642	210.68687	202.99631	194.31332	73.44367	
131	1.300	200.78790	195.25412	211.10287	202.94276	194.32285	73.84319	
132	1.310	200.75325	195.24191	211.51901	202.89622	194.32855	74.24604	
133	1.320	200.71909	195.21797	211.93503	202.86151	194.33078	74.65410	
134	1.330	200.68683	195.18471	212.35219	202.84299	194.32919	75.06513	
135	1.340	200.65970	195.14729	212.77322	202.84174	194.32355	75.47685	
136	1.350	200.64212	195.11119	213.19928	202.85582	194.31488	75.89049	
137	1.360	200.63734	195.08020	213.62920	202.88245	194.30638	76.30882	
138	1.370	200.64481	195.05586	214.06168	202.91917	194.30190	76.73203	
139	1.380	200.65974	195.03807	214.49649	202.96220	194.30319	77.15712	
140	1.390	200.67542	195.02579	214.93369	203.00446	194.30959	77.58063	
141	1.400	200.68651	195.01723	215.37257	203.03705	194.32007	78.00068	
142	1.410	200.69119	195.01030	215.81071	203.05330	194.33463	78.41628	
143	1.420	200.68935	195.00357	216.24458	203.05121	194.35304	78.82668	
144	1.430	200.68039	194.99706	216.67215	203.03297	194.37347	79.23206	
